<svg width="11.889648" height="16.000000" viewBox="0 0 11.8896 16" fill="none" xmlns="http://www.w3.org/2000/svg" xmlns:xlink="http://www.w3.org/1999/xlink">
	<desc>
			Created with Pixso.
	</desc>
	<defs/>
	<path id="path" d="M11.79 7.82L6.35 0.21C6.3 0.14 6.24 0.09 6.16 0.05C6.09 0.02 6.01 0 5.92 0C5.84 0 5.76 0.02 5.68 0.06C5.61 0.09 5.54 0.15 5.49 0.21L0.09 7.82C0.04 7.89 0 7.99 0 8.08C-0.01 8.18 0.01 8.28 0.05 8.36C0.1 8.45 0.16 8.52 0.25 8.57C0.33 8.62 0.42 8.64 0.52 8.64L3.06 8.64L3.06 15.47C3.06 15.54 3.08 15.6 3.1 15.67C3.13 15.74 3.17 15.79 3.22 15.84C3.27 15.89 3.32 15.93 3.39 15.96C3.45 15.98 3.52 16 3.59 16L8.29 16C8.36 16 8.43 15.98 8.49 15.96C8.56 15.92 8.61 15.89 8.66 15.84C8.71 15.79 8.75 15.74 8.78 15.67C8.8 15.6 8.82 15.54 8.82 15.47L8.82 8.64L11.36 8.64C11.56 8.64 11.74 8.53 11.83 8.36C11.87 8.28 11.89 8.17 11.88 8.08C11.88 7.99 11.84 7.89 11.79 7.82Z" fill="#6F6F6F" fill-opacity="1.000000" fill-rule="nonzero"/>
</svg>
