<svg width="20.000000" height="20.000000" viewBox="0 0 20 20" fill="none" xmlns="http://www.w3.org/2000/svg" xmlns:xlink="http://www.w3.org/1999/xlink">
	<desc>
			Created with Pixso.
	</desc>
	<defs/>
	<path id="path" d="M10 20C15.52 20 20 15.52 20 10C20 9.53 19.3 9.46 19.06 9.85C18.55 10.7 17.86 11.42 17.03 11.95C16.2 12.49 15.26 12.82 14.28 12.95C13.3 13.07 12.31 12.96 11.38 12.64C10.45 12.32 9.6 11.78 8.9 11.09C8.2 10.39 7.67 9.54 7.35 8.61C7.03 7.68 6.93 6.68 7.04 5.71C7.16 4.73 7.5 3.79 8.04 2.96C8.58 2.14 9.29 1.44 10.14 0.92C10.54 0.69 10.46 0 10 0C4.47 0 0 4.47 0 10C0 15.52 4.47 20 10 20Z" fill="#E1B014" fill-opacity="1.000000" fill-rule="nonzero"/>
</svg>
    