<svg width="21.500000" height="21.500000" viewBox="0 0 21.5 21.5" fill="none" xmlns="http://www.w3.org/2000/svg" xmlns:xlink="http://www.w3.org/1999/xlink">
	<desc>
			Created with Pixso.
	</desc>
	<defs/>
	<path id="path" d="M15.75 10.75C15.75 12.07 15.22 13.35 14.28 14.28C13.34 15.22 12.07 15.75 10.75 15.75C9.42 15.75 8.15 15.22 7.21 14.28C6.27 13.35 5.75 12.07 5.75 10.75C5.75 9.42 6.27 8.14 7.21 7.21C8.15 6.27 9.42 5.75 10.75 5.75C12.07 5.75 13.34 6.27 14.28 7.21C15.22 8.14 15.75 9.42 15.75 10.75Z" fill="#E16519" fill-opacity="1.000000" fill-rule="nonzero"/>
	<path id="path" d="M10.75 0C10.94 0 11.13 0.07 11.28 0.21C11.42 0.35 11.5 0.55 11.5 0.75L11.5 2.75C11.5 2.94 11.42 3.14 11.28 3.28C11.13 3.42 10.94 3.5 10.75 3.5C10.55 3.5 10.36 3.42 10.21 3.28C10.07 3.14 10 2.94 10 2.75L10 0.75C10 0.55 10.07 0.35 10.21 0.21C10.36 0.07 10.55 0 10.75 0ZM2.41 2.46C2.48 2.39 2.56 2.33 2.65 2.28C2.74 2.25 2.84 2.22 2.93 2.22C3.03 2.21 3.13 2.23 3.22 2.26C3.32 2.3 3.4 2.35 3.47 2.42L5.7 4.45C5.77 4.51 5.83 4.59 5.87 4.68C5.92 4.77 5.94 4.87 5.95 4.96C5.95 5.07 5.94 5.17 5.9 5.26C5.87 5.35 5.82 5.44 5.75 5.51C5.68 5.58 5.6 5.64 5.51 5.68C5.42 5.73 5.32 5.75 5.23 5.75C5.13 5.76 5.03 5.75 4.93 5.71C4.84 5.67 4.76 5.62 4.68 5.55L2.46 3.52C2.39 3.46 2.33 3.38 2.29 3.28C2.25 3.2 2.22 3.1 2.22 3C2.21 2.9 2.23 2.81 2.26 2.71C2.3 2.62 2.35 2.53 2.41 2.46ZM19.08 2.46C19.14 2.53 19.19 2.62 19.23 2.71C19.26 2.81 19.28 2.9 19.27 3C19.27 3.1 19.24 3.2 19.2 3.28C19.16 3.38 19.1 3.46 19.03 3.52L16.81 5.55C16.66 5.68 16.47 5.75 16.27 5.74C16.07 5.73 15.89 5.64 15.75 5.5C15.62 5.35 15.55 5.16 15.56 4.96C15.57 4.77 15.65 4.58 15.79 4.45L18.02 2.42C18.09 2.35 18.17 2.3 18.27 2.26C18.36 2.23 18.46 2.21 18.56 2.22C18.66 2.22 18.75 2.25 18.84 2.28C18.93 2.33 19.01 2.39 19.08 2.46ZM0 10.75C0 10.55 0.07 10.35 0.21 10.21C0.36 10.07 0.55 10 0.75 10L2.75 10C2.94 10 3.13 10.07 3.28 10.21C3.42 10.35 3.5 10.55 3.5 10.75C3.5 10.94 3.42 11.14 3.28 11.28C3.13 11.42 2.94 11.5 2.75 11.5L0.75 11.5C0.55 11.5 0.36 11.42 0.21 11.28C0.07 11.14 0 10.94 0 10.75ZM18 10.75C18 10.55 18.07 10.35 18.21 10.21C18.36 10.07 18.55 10 18.75 10L20.75 10C20.94 10 21.13 10.07 21.28 10.21C21.42 10.35 21.5 10.55 21.5 10.75C21.5 10.94 21.42 11.14 21.28 11.28C21.13 11.42 20.94 11.5 20.75 11.5L18.75 11.5C18.55 11.5 18.36 11.42 18.21 11.28C18.07 11.14 18 10.94 18 10.75ZM15.77 15.77C15.91 15.63 16.1 15.55 16.3 15.55C16.5 15.55 16.69 15.63 16.83 15.77L19.05 18C19.19 18.14 19.26 18.32 19.25 18.52C19.25 18.71 19.17 18.89 19.04 19.03C18.9 19.17 18.71 19.25 18.52 19.25C18.32 19.26 18.14 19.18 17.99 19.05L15.77 16.83C15.63 16.69 15.55 16.5 15.55 16.3C15.55 16.1 15.63 15.91 15.77 15.77ZM5.72 15.77C5.79 15.84 5.84 15.92 5.88 16.01C5.92 16.1 5.94 16.2 5.94 16.3C5.94 16.4 5.92 16.5 5.88 16.59C5.84 16.68 5.79 16.76 5.72 16.83L3.5 19.05C3.35 19.18 3.17 19.26 2.97 19.25C2.78 19.25 2.59 19.17 2.45 19.03C2.32 18.89 2.24 18.71 2.24 18.52C2.23 18.32 2.3 18.14 2.44 18L4.66 15.77C4.8 15.63 4.99 15.55 5.19 15.55C5.39 15.55 5.58 15.63 5.72 15.77ZM10.75 18C10.94 18 11.13 18.07 11.28 18.21C11.42 18.35 11.5 18.55 11.5 18.75L11.5 20.75C11.5 20.94 11.42 21.14 11.28 21.28C11.13 21.42 10.94 21.5 10.75 21.5C10.55 21.5 10.36 21.42 10.21 21.28C10.07 21.14 10 20.94 10 20.75L10 18.75C10 18.55 10.07 18.35 10.21 18.21C10.36 18.07 10.55 18 10.75 18Z" fill="#E16519" fill-opacity="1.000000" fill-rule="evenodd"/>
</svg>
