<svg width="20.000000" height="20.000000" viewBox="0 0 20 20" fill="none" xmlns="http://www.w3.org/2000/svg" xmlns:xlink="http://www.w3.org/1999/xlink">
	<desc>
			Created with Pixso.
	</desc>
	<defs/>
	<path id="path" d="M16.28 20C18.33 20 20 18.42 20 16.46C20 14.92 18.95 13.6 17.5 13.13C17.29 11.36 15.71 10 13.8 10C11.75 10 10.09 11.57 10.09 13.53C10.09 13.96 10.17 14.37 10.32 14.75C10.14 14.72 9.96 14.7 9.78 14.7C8.24 14.7 7 15.89 7 17.35C7 18.81 8.24 20 9.78 20L16.28 20Z" fill="#3F57B0" fill-opacity="1.000000" fill-rule="nonzero"/>
	<path id="path" d="M19.55 12.54C19.31 12.36 19.06 12.2 18.79 12.06C18.13 9.96 16.11 8.5 13.8 8.5C11.05 8.5 8.68 10.6 8.59 13.36C7.27 13.74 6.18 14.71 5.73 16L4.28 16C1.91 16 0 14.1 0 11.76C0 9.42 1.91 7.53 4.28 7.53C4.57 7.53 4.84 7.55 5.11 7.6C4.88 6.98 4.76 6.32 4.76 5.64C4.76 2.53 7.32 0 10.47 0C13.41 0 15.83 2.19 16.15 5.01C18.39 5.78 20 7.88 20 10.35C20 11.13 19.83 11.87 19.55 12.54Z" fill="#A8D9FB" fill-opacity="1.000000" fill-rule="nonzero"/>
</svg>
