<svg width="20.750000" height="20.750000" viewBox="0 0 20.75 20.75" fill="none" xmlns="http://www.w3.org/2000/svg" xmlns:xlink="http://www.w3.org/1999/xlink">
	<desc>
			Created with Pixso.
	</desc>
	<defs/>
	<path id="path" d="M10.25 6.75C10.25 7.67 9.88 8.57 9.22 9.22C8.56 9.88 7.67 10.25 6.75 10.25C5.82 10.25 4.93 9.88 4.27 9.22C3.61 8.57 3.25 7.67 3.25 6.75C3.25 5.82 3.61 4.92 4.27 4.27C4.93 3.61 5.82 3.25 6.75 3.25C7.67 3.25 8.56 3.61 9.22 4.27C9.88 4.92 10.25 5.82 10.25 6.75Z" fill="#E16519" fill-opacity="1.000000" fill-rule="nonzero"/>
	<path id="path" d="M6.25 0C6.44 0 6.63 0.07 6.78 0.21C6.92 0.35 7 0.55 7 0.75L7 1.25C7 1.44 6.92 1.64 6.78 1.78C6.63 1.92 6.44 2 6.25 2C6.05 2 5.86 1.92 5.71 1.78C5.57 1.64 5.5 1.44 5.5 1.25L5.5 0.75C5.5 0.55 5.57 0.35 5.71 0.21C5.86 0.07 6.05 0 6.25 0ZM1.83 1.82C1.89 1.75 1.98 1.7 2.07 1.66C2.16 1.63 2.26 1.6 2.36 1.6C2.45 1.6 2.55 1.63 2.64 1.66C2.73 1.7 2.82 1.75 2.89 1.82L3.1 2.04C3.24 2.18 3.32 2.37 3.31 2.57C3.31 2.77 3.23 2.96 3.09 3.1C2.95 3.23 2.77 3.31 2.57 3.32C2.37 3.32 2.18 3.24 2.04 3.1L1.83 2.89C1.69 2.75 1.61 2.56 1.61 2.35C1.61 2.16 1.68 1.96 1.83 1.82ZM10.66 1.82C10.73 1.89 10.79 1.98 10.83 2.07C10.86 2.16 10.88 2.26 10.88 2.35C10.88 2.46 10.86 2.55 10.83 2.64C10.79 2.74 10.73 2.82 10.66 2.89L10.45 3.1C10.38 3.17 10.3 3.24 10.21 3.28C10.11 3.32 10.01 3.34 9.91 3.34C9.81 3.34 9.71 3.32 9.62 3.28C9.53 3.25 9.44 3.19 9.37 3.12C9.3 3.05 9.24 2.96 9.2 2.87C9.17 2.78 9.15 2.67 9.15 2.58C9.15 2.48 9.17 2.38 9.21 2.28C9.25 2.19 9.31 2.11 9.39 2.04L9.6 1.82C9.67 1.75 9.76 1.7 9.85 1.67C9.94 1.63 10.04 1.6 10.13 1.6C10.23 1.6 10.33 1.63 10.42 1.67C10.51 1.7 10.59 1.75 10.66 1.82ZM0 6.25C0 6.05 0.07 5.85 0.21 5.71C0.36 5.57 0.55 5.5 0.75 5.5L1.25 5.5C1.44 5.5 1.63 5.57 1.78 5.71C1.92 5.85 2 6.05 2 6.25C2 6.44 1.92 6.64 1.78 6.78C1.63 6.92 1.44 7 1.25 7L0.75 7C0.55 7 0.36 6.92 0.21 6.78C0.07 6.64 0 6.44 0 6.25ZM3.1 9.39C3.24 9.53 3.32 9.72 3.32 9.92C3.32 10.12 3.24 10.31 3.1 10.45L2.89 10.67C2.75 10.8 2.56 10.88 2.36 10.88C2.16 10.87 1.97 10.79 1.84 10.66C1.7 10.52 1.62 10.33 1.62 10.13C1.61 9.93 1.69 9.75 1.83 9.6L2.04 9.39C2.18 9.25 2.37 9.17 2.57 9.17C2.77 9.17 2.96 9.25 3.1 9.39Z" fill="#E16519" fill-opacity="1.000000" fill-rule="evenodd"/>
	<path id="path" d="M15.03 20.75C18.19 20.75 20.75 18.21 20.75 15.1C20.75 12.63 19.14 10.53 16.9 9.76C16.58 6.94 14.16 4.75 11.22 4.75C8.07 4.75 5.51 7.28 5.51 10.39C5.51 11.08 5.63 11.75 5.86 12.35C5.59 12.3 5.31 12.28 5.03 12.28C2.66 12.28 0.75 14.17 0.75 16.51C0.75 18.85 2.66 20.75 5.03 20.75L15.03 20.75Z" fill="#A8D9FB" fill-opacity="1.000000" fill-rule="nonzero"/>
</svg>
