<svg width="24.000000" height="24.000000" viewBox="0 0 24 24" fill="none" xmlns="http://www.w3.org/2000/svg" xmlns:xlink="http://www.w3.org/1999/xlink">
	<desc>
			Created with Pixso.
	</desc>
	<defs>
		<clipPath id="clip1305_25008">
			<rect id="Свойство 1=погода,属性 2=облачно_ночь" width="24.000000" height="24.000000" fill="white" fill-opacity="0"/>
		</clipPath>
	</defs>
	<g clip-path="url(#clip1305_25008)">
		<path id="path" d="M11.28 22C13.33 22 15 20.42 15 18.46C15 16.92 13.95 15.6 12.5 15.13C12.29 13.36 10.71 12 8.8 12C6.75 12 5.09 13.57 5.09 15.53C5.09 15.96 5.17 16.37 5.32 16.75C5.14 16.72 4.96 16.7 4.78 16.7C3.24 16.7 2 17.89 2 19.35C2 20.81 3.24 22 4.78 22L11.28 22Z" fill="#A8D9FB" fill-opacity="1.000000" fill-rule="nonzero"/>
		<path id="path" d="M2.71 15.72C2.99 15.57 3.29 15.45 3.59 15.36C3.68 12.6 6.05 10.5 8.8 10.5C8.98 10.5 9.15 10.5 9.32 10.52C9.1 9.86 8.99 9.18 9 8.5C8.99 7.38 9.28 6.28 9.83 5.3C10.38 4.32 11.18 3.5 12.14 2.92C12.54 2.69 12.46 2 12 2C6.47 2 2 6.47 2 12C1.99 13.27 2.24 14.53 2.71 15.72ZM22 12C22 16.26 19.32 19.9 15.56 21.34C16.17 20.5 16.5 19.5 16.5 18.46C16.5 17.82 16.37 17.17 16.12 16.57C15.87 15.98 15.5 15.43 15.04 14.98C16.23 15.07 17.43 14.82 18.49 14.27C19.55 13.71 20.44 12.88 21.06 11.85C21.3 11.46 22 11.53 22 12Z" fill="#E1B014" fill-opacity="1.000000" fill-rule="nonzero"/>
	</g>
</svg>
