<svg width="20.000000" height="19.765625" viewBox="0 0 20 19.7656" fill="none" xmlns="http://www.w3.org/2000/svg" xmlns:xlink="http://www.w3.org/1999/xlink">
	<desc>
			Created with Pixso.
	</desc>
	<defs/>
	<path id="path" d="M10.03 11.96C10.16 12.1 10.24 12.29 10.24 12.5C10.24 12.69 10.16 12.89 10.03 13.03L8.03 15.03C7.96 15.1 7.87 15.16 7.78 15.2C7.69 15.24 7.59 15.26 7.49 15.26C7.39 15.27 7.29 15.25 7.2 15.21C7.1 15.17 7.02 15.11 6.95 15.04C6.87 14.97 6.82 14.89 6.78 14.79C6.74 14.7 6.72 14.6 6.73 14.5C6.73 14.4 6.75 14.3 6.79 14.21C6.83 14.11 6.89 14.03 6.96 13.96L8.96 11.96C9.11 11.82 9.3 11.75 9.5 11.75C9.69 11.75 9.88 11.82 10.03 11.96ZM14.53 11.96C14.66 12.1 14.74 12.29 14.74 12.5C14.74 12.69 14.66 12.89 14.53 13.03L12.53 15.03C12.46 15.1 12.37 15.16 12.28 15.2C12.19 15.24 12.09 15.26 11.99 15.26C11.89 15.27 11.79 15.25 11.7 15.21C11.6 15.17 11.52 15.11 11.45 15.04C11.37 14.97 11.32 14.89 11.28 14.79C11.24 14.7 11.22 14.6 11.23 14.5C11.23 14.4 11.25 14.3 11.29 14.21C11.33 14.11 11.39 14.03 11.46 13.96L13.46 11.96C13.61 11.82 13.8 11.75 14 11.75C14.19 11.75 14.38 11.82 14.53 11.96ZM6.03 15.46C6.16 15.6 6.24 15.79 6.24 16C6.24 16.19 6.16 16.39 6.03 16.53L4.03 18.53C3.88 18.66 3.69 18.73 3.5 18.73C3.31 18.72 3.12 18.64 2.98 18.5C2.85 18.37 2.77 18.18 2.76 17.99C2.76 17.79 2.83 17.6 2.96 17.46L4.96 15.46C5.11 15.32 5.3 15.25 5.5 15.25C5.69 15.25 5.88 15.32 6.03 15.46ZM15.53 15.46C15.66 15.6 15.74 15.79 15.74 16C15.74 16.19 15.66 16.39 15.53 16.53L13.53 18.53C13.46 18.6 13.37 18.66 13.28 18.7C13.19 18.74 13.09 18.76 12.99 18.76C12.89 18.77 12.79 18.75 12.7 18.71C12.6 18.67 12.52 18.61 12.45 18.54C12.37 18.47 12.32 18.39 12.28 18.29C12.24 18.2 12.22 18.1 12.23 18C12.23 17.9 12.25 17.8 12.29 17.71C12.33 17.61 12.39 17.53 12.46 17.46L14.46 15.46C14.61 15.32 14.8 15.25 15 15.25C15.19 15.25 15.38 15.32 15.53 15.46ZM10.53 16.46C10.66 16.6 10.74 16.79 10.74 17C10.74 17.19 10.66 17.39 10.53 17.53L8.53 19.53C8.46 19.6 8.37 19.66 8.28 19.7C8.19 19.74 8.09 19.76 7.99 19.76C7.89 19.77 7.79 19.75 7.7 19.71C7.6 19.67 7.52 19.61 7.45 19.54C7.37 19.47 7.32 19.39 7.28 19.29C7.24 19.2 7.22 19.1 7.23 19C7.23 18.9 7.25 18.8 7.29 18.71C7.33 18.61 7.39 18.53 7.46 18.46L9.46 16.46C9.61 16.32 9.8 16.25 10 16.25C10.19 16.25 10.38 16.32 10.53 16.46Z" fill="#3F57B0" fill-opacity="1.000000" fill-rule="evenodd"/>
	<path id="path" d="M17.12 15.25C17.01 14.93 16.83 14.65 16.6 14.42C16.36 14.17 16.08 14 15.77 13.88C16.12 13.43 16.29 12.86 16.24 12.29C16.19 11.71 15.92 11.19 15.49 10.81C15.06 10.42 14.5 10.22 13.93 10.25C13.35 10.26 12.81 10.5 12.4 10.9L11.6 11.71C11.47 11.35 11.25 11.04 10.97 10.79C10.68 10.55 10.34 10.38 9.97 10.3C9.6 10.21 9.22 10.23 8.86 10.34C8.5 10.44 8.17 10.64 7.9 10.9L5.9 12.9C5.67 13.14 5.48 13.43 5.37 13.75C4.84 13.78 4.31 14 3.9 14.4L2.64 15.67C1.09 15.03 0 13.53 0 11.76C0 9.42 1.91 7.53 4.28 7.53C4.57 7.53 4.84 7.55 5.11 7.6C4.88 6.98 4.76 6.32 4.76 5.64C4.76 2.53 7.32 0 10.47 0C13.41 0 15.83 2.19 16.15 5.01C18.39 5.78 20 7.88 20 10.35C20 12.45 18.84 14.28 17.12 15.25Z" fill="#A8D9FB" fill-opacity="1.000000" fill-rule="nonzero"/>
</svg>
