<svg width="20.000000" height="19.750000" viewBox="0 0 20 19.75" fill="none" xmlns="http://www.w3.org/2000/svg" xmlns:xlink="http://www.w3.org/1999/xlink">
	<desc>
			Created with Pixso.
	</desc>
	<defs/>
	<path id="path" d="M10 11.25C10.2 11.25 10.39 11.32 10.53 11.46C10.67 11.6 10.75 11.8 10.75 12L10.75 14.16L12.62 13.07C12.71 13.03 12.8 13 12.9 12.98C13 12.96 13.09 12.97 13.19 13C13.29 13.03 13.38 13.07 13.45 13.13C13.53 13.19 13.6 13.26 13.65 13.35C13.7 13.43 13.73 13.53 13.74 13.63C13.75 13.72 13.75 13.82 13.72 13.92C13.7 14.02 13.65 14.1 13.59 14.18C13.53 14.26 13.46 14.33 13.37 14.38L11.5 15.46L13.37 16.54C13.46 16.59 13.53 16.65 13.59 16.73C13.65 16.81 13.7 16.9 13.72 17C13.75 17.09 13.75 17.19 13.74 17.28C13.73 17.39 13.7 17.48 13.65 17.57C13.6 17.65 13.53 17.72 13.45 17.78C13.38 17.85 13.29 17.89 13.19 17.92C13.1 17.94 13 17.95 12.9 17.93C12.8 17.92 12.71 17.89 12.62 17.84L10.75 16.75L10.75 19C10.75 19.19 10.67 19.39 10.53 19.53C10.38 19.67 10.19 19.75 10 19.75C9.8 19.75 9.61 19.67 9.46 19.53C9.32 19.39 9.25 19.19 9.25 19L9.25 16.75L7.37 17.84C7.2 17.94 6.99 17.96 6.8 17.91C6.61 17.86 6.45 17.74 6.35 17.57C6.25 17.39 6.22 17.19 6.27 17C6.32 16.81 6.45 16.64 6.62 16.54L8.5 15.46L6.62 14.38C6.45 14.28 6.32 14.11 6.27 13.92C6.22 13.73 6.25 13.53 6.35 13.35C6.45 13.18 6.61 13.05 6.8 13C7 12.95 7.2 12.98 7.37 13.07L9.25 14.16L9.25 12C9.25 11.8 9.32 11.6 9.46 11.46C9.61 11.32 9.8 11.25 10 11.25Z" fill="#3F57B0" fill-opacity="1.000000" fill-rule="evenodd"/>
	<path id="path" d="M5.56 15.46C5.15 15.12 4.88 14.64 4.78 14.12C4.69 13.6 4.78 13.06 5.05 12.6C5.31 12.14 5.73 11.79 6.23 11.61C6.73 11.43 7.28 11.43 7.78 11.61C7.87 11.09 8.14 10.61 8.54 10.28C8.95 9.93 9.46 9.75 10 9.75C10.53 9.75 11.04 9.93 11.45 10.28C11.85 10.61 12.12 11.09 12.21 11.61C12.71 11.43 13.26 11.43 13.76 11.61C14.26 11.79 14.68 12.14 14.94 12.6C15.21 13.06 15.3 13.6 15.21 14.12C15.12 14.64 14.84 15.12 14.43 15.46L14 16L14.88 15.96C17.75 15.67 20 13.27 20 10.35C20 7.88 18.39 5.78 16.15 5.01C15.83 2.19 13.41 0 10.47 0C7.32 0 4.76 2.53 4.76 5.64C4.76 6.33 4.88 7 5.11 7.6C4.84 7.55 4.56 7.53 4.28 7.53C1.91 7.53 0 9.42 0 11.76C0 14.1 1.91 16 4.28 16L6 16L5.56 15.46Z" fill="#A8D9FB" fill-opacity="1.000000" fill-rule="nonzero"/>
</svg>
    