<svg width="24.000000" height="24.000000" viewBox="0 0 24 24" fill="none" xmlns="http://www.w3.org/2000/svg" xmlns:xlink="http://www.w3.org/1999/xlink">
	<desc>
			Created with Pixso.
	</desc>
	<defs>
		<clipPath id="clip1305_24998">
			<rect id="Свойство 1=погода,属性 2=дождьснег" width="24.000000" height="24.000000" fill="white" fill-opacity="0"/>
		</clipPath>
	</defs>
	<g clip-path="url(#clip1305_24998)">
		<path id="path" d="M12.03 14.96C12.17 15.1 12.24 15.29 12.24 15.5C12.24 15.69 12.17 15.89 12.03 16.03L10.03 18.03C9.96 18.1 9.87 18.16 9.78 18.2C9.69 18.24 9.59 18.26 9.49 18.26C9.39 18.27 9.29 18.25 9.2 18.21C9.1 18.17 9.02 18.11 8.95 18.04C8.87 17.97 8.82 17.89 8.78 17.79C8.74 17.7 8.72 17.6 8.73 17.5C8.73 17.4 8.75 17.3 8.79 17.21C8.83 17.11 8.89 17.03 8.96 16.96L10.96 14.96C11.11 14.82 11.3 14.75 11.5 14.75C11.69 14.75 11.88 14.82 12.03 14.96ZM12.53 19.46C12.67 19.6 12.74 19.79 12.74 20C12.74 20.19 12.67 20.39 12.53 20.53L10.53 22.53C10.46 22.6 10.37 22.66 10.28 22.7C10.19 22.74 10.09 22.76 9.99 22.76C9.89 22.77 9.79 22.75 9.7 22.71C9.6 22.67 9.52 22.61 9.45 22.54C9.37 22.47 9.32 22.39 9.28 22.29C9.24 22.2 9.22 22.1 9.23 22C9.23 21.9 9.25 21.8 9.29 21.71C9.33 21.61 9.39 21.53 9.46 21.46L11.46 19.46C11.61 19.32 11.8 19.25 12 19.25C12.19 19.25 12.38 19.32 12.53 19.46Z" fill="#3F57B0" fill-opacity="1.000000" fill-rule="evenodd"/>
		<path id="path" d="M17.72 20.21C17.72 20.01 17.64 19.82 17.5 19.68C17.36 19.54 17.17 19.46 16.97 19.46C16.77 19.46 16.58 19.54 16.44 19.68L14.44 21.68C14.36 21.75 14.3 21.83 14.26 21.92C14.22 22.02 14.2 22.12 14.2 22.22C14.2 22.32 14.21 22.42 14.25 22.51C14.29 22.6 14.35 22.69 14.42 22.76C14.49 22.83 14.57 22.89 14.67 22.92C14.76 22.96 14.86 22.99 14.96 22.98C15.06 22.98 15.16 22.96 15.25 22.92C15.35 22.88 15.43 22.82 15.5 22.75L17.5 20.75C17.64 20.6 17.72 20.41 17.72 20.21Z" fill="#3F57B0" fill-opacity="1.000000" fill-rule="nonzero"/>
		<path id="path" d="M19.12 18.25C19.01 17.93 18.83 17.65 18.6 17.42C18.36 17.17 18.08 17 17.77 16.88C18.12 16.43 18.29 15.86 18.24 15.29C18.19 14.71 17.92 14.19 17.49 13.81C17.06 13.42 16.5 13.22 15.93 13.25C15.35 13.26 14.81 13.5 14.4 13.9L13.6 14.71C13.47 14.35 13.25 14.04 12.97 13.79C12.68 13.55 12.34 13.38 11.97 13.3C11.6 13.21 11.22 13.23 10.86 13.34C10.5 13.44 10.17 13.64 9.9 13.9L7.9 15.9C7.67 16.14 7.48 16.43 7.37 16.75C6.84 16.78 6.31 17 5.9 17.4L4.64 18.67C3.09 18.03 2 16.53 2 14.76C2 12.42 3.91 10.53 6.28 10.53C6.57 10.53 6.84 10.55 7.11 10.6C6.88 9.98 6.76 9.32 6.76 8.64C6.76 5.53 9.32 3 12.47 3C15.41 3 17.83 5.19 18.15 8.01C20.39 8.78 22 10.88 22 13.35C22 15.45 20.84 17.28 19.12 18.25Z" fill="#A8D9FB" fill-opacity="1.000000" fill-rule="nonzero"/>
		<path id="path" d="M5.68 18.67C5.8 18.67 5.91 18.72 5.99 18.81C6.08 18.89 6.13 19 6.13 19.12L6.13 20.41L7.24 19.77C7.29 19.74 7.35 19.72 7.41 19.71C7.47 19.71 7.53 19.71 7.58 19.72C7.64 19.74 7.69 19.76 7.74 19.8C7.79 19.83 7.83 19.88 7.86 19.93C7.89 19.98 7.91 20.03 7.91 20.1C7.92 20.15 7.92 20.21 7.9 20.27C7.89 20.33 7.86 20.38 7.82 20.42C7.79 20.47 7.74 20.51 7.69 20.54L6.57 21.19L7.69 21.83C7.74 21.86 7.79 21.9 7.82 21.95C7.86 22 7.89 22.05 7.9 22.1C7.92 22.16 7.92 22.22 7.91 22.28C7.9 22.34 7.89 22.39 7.86 22.45C7.83 22.5 7.79 22.54 7.74 22.57C7.69 22.61 7.64 22.64 7.58 22.65C7.53 22.67 7.47 22.67 7.41 22.67C7.35 22.66 7.3 22.64 7.25 22.61L6.12 21.96L6.12 23.3C6.12 23.42 6.08 23.53 5.99 23.61C5.91 23.7 5.8 23.75 5.68 23.75C5.56 23.75 5.45 23.7 5.36 23.61C5.28 23.53 5.23 23.42 5.23 23.3L5.23 21.96L4.11 22.61C4.01 22.67 3.89 22.68 3.77 22.65C3.66 22.62 3.56 22.54 3.5 22.44C3.44 22.34 3.43 22.22 3.46 22.1C3.49 21.99 3.56 21.89 3.66 21.83L4.78 21.19L3.66 20.54C3.56 20.48 3.49 20.39 3.46 20.27C3.43 20.16 3.44 20.03 3.5 19.93C3.56 19.83 3.66 19.75 3.77 19.72C3.89 19.69 4.01 19.71 4.11 19.77L5.23 20.41L5.23 19.12C5.23 19 5.28 18.89 5.36 18.81C5.45 18.72 5.56 18.67 5.68 18.67Z" fill="#3F57B0" fill-opacity="1.000000" fill-rule="evenodd"/>
		<path id="path" d="M15.05 15.12C15.14 15.12 15.23 15.16 15.3 15.23C15.37 15.29 15.41 15.39 15.41 15.48L15.41 16.52L16.31 16C16.35 15.98 16.39 15.96 16.44 15.96C16.49 15.95 16.54 15.95 16.58 15.96C16.63 15.97 16.67 16 16.71 16.03C16.75 16.06 16.78 16.09 16.8 16.13C16.83 16.17 16.84 16.21 16.85 16.27C16.85 16.32 16.85 16.36 16.84 16.41C16.82 16.45 16.8 16.5 16.77 16.53C16.75 16.57 16.71 16.6 16.67 16.63L15.77 17.14L16.67 17.67C16.71 17.69 16.75 17.72 16.77 17.76C16.8 17.79 16.82 17.84 16.84 17.89C16.85 17.93 16.85 17.98 16.85 18.03C16.84 18.07 16.82 18.11 16.8 18.16C16.78 18.2 16.75 18.24 16.71 18.26C16.67 18.29 16.63 18.32 16.58 18.32C16.54 18.34 16.49 18.34 16.44 18.33C16.39 18.33 16.35 18.32 16.31 18.29L15.41 17.77L15.41 18.85C15.41 18.94 15.37 19.03 15.3 19.1C15.23 19.17 15.14 19.21 15.05 19.21C14.95 19.21 14.86 19.17 14.79 19.1C14.72 19.03 14.69 18.94 14.69 18.85L14.69 17.77L13.78 18.29C13.7 18.34 13.6 18.35 13.51 18.32C13.42 18.3 13.34 18.24 13.29 18.16C13.25 18.07 13.23 17.97 13.26 17.89C13.28 17.79 13.34 17.71 13.42 17.67L14.33 17.14L13.43 16.63C13.34 16.57 13.28 16.5 13.26 16.41C13.23 16.32 13.25 16.21 13.29 16.14C13.34 16.05 13.42 15.99 13.51 15.96C13.6 15.94 13.7 15.95 13.79 16L14.69 16.52L14.69 15.48C14.69 15.39 14.72 15.29 14.79 15.23C14.86 15.16 14.95 15.12 15.05 15.12Z" fill="#3F57B0" fill-opacity="1.000000" fill-rule="evenodd"/>
	</g>
</svg>
