<svg width="18.000000" height="18.000000" viewBox="0 0 18 18" fill="none" xmlns="http://www.w3.org/2000/svg" xmlns:xlink="http://www.w3.org/1999/xlink">
	<desc>
			Created with Pixso.
	</desc>
	<defs>
		<clipPath id="clip1395_25189">
			<rect id="часы" width="18.000000" height="18.000000" fill="white" fill-opacity="0"/>
		</clipPath>
	</defs>
	<g clip-path="url(#clip1395_25189)">
		<path id="path" d="M9 17.18C13.51 17.18 17.18 13.52 17.18 9C17.18 4.48 13.51 0.82 9 0.82C4.48 0.82 0.81 4.48 0.81 9C0.81 13.52 4.48 17.18 9 17.18Z" fill="#000000" fill-opacity="0" fill-rule="nonzero"/>
		<path id="path" d="M17.18 9C17.18 4.48 13.51 0.82 9 0.82C4.48 0.82 0.81 4.48 0.81 9C0.81 13.52 4.48 17.18 9 17.18C13.51 17.18 17.18 13.52 17.18 9Z" stroke="#4D566F" stroke-opacity="1.000000" stroke-width="1.000000"/>
		<path id="path" d="M8.51 3.02L8.5 3C8.5 2.71 8.71 2.5 9 2.5C9.28 2.5 9.5 2.71 9.5 3L9.48 3.02L8.51 3.02ZM13.32 12.64L13.35 12.64C13.55 12.84 13.55 13.15 13.35 13.35C13.15 13.55 12.84 13.55 12.64 13.35L12.64 13.32L13.32 12.64Z" fill="#000000" fill-opacity="0" fill-rule="nonzero"/>
		<path id="path" d="M9 3L9 9L13 13" stroke="#4D566F" stroke-opacity="1.000000" stroke-width="1.000000" stroke-linejoin="round" stroke-linecap="round"/>
	</g>
</svg>
