<svg width="18.022461" height="18.023438" viewBox="0 0 18.0225 18.0234" fill="none" xmlns="http://www.w3.org/2000/svg" xmlns:xlink="http://www.w3.org/1999/xlink">
	<desc>
			Created with Pixso.
	</desc>
	<defs/>
	<path id="path" d="M9 0C9.03 0 9.06 0 9.1 0C9.6 0 10.09 0.02 10.59 0.11C10.64 0.12 10.64 0.12 10.68 0.13C12.4 0.44 13.98 1.26 15.23 2.46C15.26 2.5 15.26 2.5 15.3 2.53C15.63 2.85 15.94 3.18 16.21 3.56C16.24 3.6 16.27 3.64 16.3 3.67C16.52 3.96 16.7 4.27 16.88 4.57C16.9 4.6 16.91 4.63 16.92 4.65C17.38 5.46 17.69 6.35 17.88 7.26C17.88 7.28 17.89 7.32 17.89 7.34C18 7.89 18.02 8.44 18.02 9C18.02 9.05 18.02 9.05 18.02 9.1C18.02 9.6 18 10.09 17.9 10.59C17.9 10.62 17.89 10.65 17.88 10.68C17.57 12.39 16.75 13.98 15.54 15.23C15.52 15.25 15.5 15.28 15.48 15.3C15.16 15.64 14.83 15.94 14.46 16.21C14.41 16.25 14.37 16.28 14.33 16.31C14.05 16.52 13.75 16.71 13.44 16.88C13.41 16.89 13.39 16.91 13.36 16.92C12.55 17.38 11.66 17.69 10.75 17.88C10.73 17.88 10.7 17.89 10.67 17.89C10.12 18 9.58 18.02 9.02 18.02C8.98 18.02 8.95 18.02 8.91 18.02C8.41 18.02 7.92 18 7.42 17.9C7.39 17.89 7.36 17.89 7.33 17.89C5.62 17.57 4.03 16.75 2.78 15.54C2.76 15.53 2.74 15.5 2.71 15.48C2.38 15.16 2.07 14.83 1.8 14.46C1.77 14.42 1.74 14.38 1.71 14.33C1.5 14.05 1.31 13.75 1.13 13.43C1.12 13.41 1.1 13.39 1.09 13.36C0.63 12.55 0.32 11.67 0.14 10.75C0.13 10.71 0.13 10.71 0.12 10.67C0.02 10.13 -0.01 9.57 0 9.02C0 8.98 0 8.95 0 8.92C0 8.41 0.01 7.92 0.11 7.42C0.12 7.38 0.12 7.38 0.13 7.33C0.44 5.62 1.26 4.03 2.47 2.78C2.49 2.76 2.51 2.74 2.53 2.71C2.86 2.38 3.18 2.07 3.56 1.8C3.6 1.77 3.64 1.74 3.68 1.71C3.97 1.5 4.27 1.31 4.58 1.13C4.6 1.12 4.63 1.1 4.65 1.09C5.46 0.63 6.35 0.32 7.26 0.14C7.3 0.13 7.3 0.13 7.34 0.12C7.89 0.02 8.44 0 9 0ZM3.71 3.09C3.65 3.14 3.6 3.2 3.54 3.25C2.1 4.51 1.22 6.46 1.07 8.36C0.94 10.45 1.56 12.53 2.94 14.13C2.99 14.18 3.04 14.25 3.09 14.3C3.15 14.35 3.2 14.42 3.25 14.47C4.51 15.92 6.47 16.79 8.36 16.94C10.45 17.08 12.53 16.46 14.13 15.07C14.19 15.03 14.24 14.97 14.3 14.92C14.36 14.87 14.42 14.82 14.47 14.76C15.92 13.5 16.79 11.54 16.94 9.65C17.08 7.57 16.45 5.48 15.08 3.89C15.03 3.82 14.97 3.77 14.92 3.71C14.87 3.65 14.82 3.6 14.76 3.54C13.5 2.1 11.55 1.22 9.65 1.07C7.48 0.93 5.32 1.61 3.71 3.09Z" fill="#4D566F" fill-opacity="1.000000" fill-rule="nonzero"/>
	<path id="path" d="M8.98 2.24C9.02 2.24 9.05 2.24 9.08 2.24C9.57 2.24 10.04 2.27 10.52 2.39C10.55 2.4 10.58 2.41 10.61 2.42C11.96 2.76 13.29 3.5 14.17 4.6C14.2 4.64 14.23 4.67 14.26 4.71C14.99 5.63 15.48 6.68 15.69 7.84C15.69 7.87 15.7 7.9 15.7 7.93C15.77 8.28 15.77 8.63 15.77 8.98C15.77 9.03 15.77 9.03 15.77 9.07C15.77 9.57 15.74 10.03 15.62 10.51C15.61 10.54 15.6 10.57 15.59 10.6C15.3 11.76 14.74 12.77 13.95 13.65C13.93 13.68 13.93 13.68 13.9 13.71C13.78 13.85 13.65 13.92 13.47 13.96C13.26 13.96 13.12 13.9 12.96 13.76C12.86 13.67 12.77 13.57 12.67 13.47C12.63 13.43 12.59 13.39 12.55 13.35C12.46 13.26 12.37 13.17 12.29 13.08C12.17 12.97 12.06 12.85 11.95 12.75C11.87 12.66 11.78 12.57 11.69 12.49C11.65 12.44 11.61 12.4 11.57 12.36C11.51 12.3 11.46 12.25 11.4 12.18C11.37 12.15 11.33 12.12 11.3 12.09C11.18 11.94 11.13 11.8 11.15 11.62C11.18 11.46 11.24 11.36 11.36 11.25C11.52 11.15 11.66 11.12 11.84 11.15C11.94 11.18 11.98 11.22 12.06 11.29C12.09 11.32 12.09 11.32 12.13 11.35C12.25 11.47 12.37 11.59 12.49 11.71C12.52 11.75 12.52 11.75 12.56 11.78C12.64 11.86 12.72 11.94 12.8 12.02C12.86 12.07 12.91 12.13 12.97 12.18C13.1 12.32 13.23 12.46 13.37 12.59C13.51 12.45 13.51 12.45 13.63 12.3C13.64 12.28 13.65 12.25 13.67 12.24C13.68 12.21 13.7 12.19 13.71 12.17C13.73 12.14 13.74 12.12 13.76 12.1C14.08 11.6 14.32 11.07 14.48 10.5C14.49 10.46 14.49 10.46 14.5 10.42C14.58 10.13 14.62 9.83 14.67 9.53C14.64 9.53 14.62 9.53 14.59 9.53C14.36 9.53 14.13 9.53 13.89 9.53C13.77 9.53 13.65 9.53 13.53 9.53C13.4 9.53 13.26 9.53 13.12 9.54C13.06 9.54 13.06 9.54 12.99 9.54C12.62 9.54 12.62 9.54 12.45 9.42C12.31 9.27 12.26 9.14 12.27 8.93C12.29 8.78 12.35 8.67 12.47 8.57C12.6 8.48 12.7 8.47 12.86 8.47C12.9 8.47 12.94 8.47 12.98 8.47C13.02 8.47 13.07 8.47 13.11 8.47C13.18 8.47 13.18 8.47 13.25 8.47C13.36 8.47 13.48 8.47 13.6 8.47C13.72 8.47 13.84 8.47 13.96 8.47C14.2 8.47 14.43 8.47 14.67 8.47C14.65 8.35 14.62 8.23 14.6 8.11C14.6 8.07 14.59 8.04 14.58 8C14.41 7.04 14.01 6.18 13.4 5.42C13.22 5.57 13.05 5.73 12.88 5.9C12.83 5.95 12.78 6 12.73 6.05C12.65 6.14 12.57 6.21 12.49 6.3C12.41 6.38 12.34 6.46 12.26 6.53C12.24 6.56 12.21 6.58 12.19 6.6C12.04 6.75 11.92 6.85 11.7 6.86C11.5 6.84 11.39 6.8 11.26 6.64C11.16 6.49 11.13 6.35 11.16 6.17C11.19 6.07 11.23 6.03 11.29 5.95C11.33 5.91 11.33 5.91 11.36 5.88C11.48 5.75 11.59 5.64 11.71 5.52C11.74 5.5 11.76 5.47 11.79 5.44C11.87 5.36 11.95 5.28 12.03 5.21C12.08 5.15 12.14 5.1 12.19 5.04C12.33 4.91 12.46 4.78 12.59 4.64C12.46 4.51 12.33 4.4 12.18 4.3C12.15 4.28 12.13 4.27 12.11 4.25C11.86 4.09 11.6 3.96 11.33 3.83C11.3 3.82 11.28 3.82 11.26 3.8C11 3.69 10.74 3.6 10.47 3.53C10.44 3.52 10.42 3.51 10.39 3.51C10.11 3.43 9.82 3.39 9.53 3.34C9.53 3.38 9.53 3.38 9.53 3.42C9.54 3.65 9.54 3.88 9.54 4.11C9.54 4.23 9.54 4.35 9.54 4.47C9.54 4.61 9.54 4.75 9.54 4.89C9.54 4.92 9.54 4.97 9.55 5.02C9.55 5.39 9.55 5.39 9.43 5.56C9.27 5.7 9.15 5.75 8.94 5.74C8.78 5.72 8.68 5.65 8.57 5.53C8.48 5.4 8.47 5.31 8.47 5.15C8.47 5.1 8.47 5.07 8.47 5.03C8.48 4.99 8.48 4.94 8.48 4.89C8.48 4.83 8.48 4.83 8.48 4.76C8.48 4.64 8.48 4.53 8.48 4.41C8.48 4.28 8.48 4.17 8.48 4.05C8.48 3.82 8.48 3.57 8.48 3.34C8.36 3.36 8.24 3.39 8.11 3.4C8.06 3.42 8.06 3.42 8.01 3.42C7.04 3.6 6.19 4 5.42 4.6C5.57 4.79 5.73 4.96 5.9 5.12C5.95 5.17 6.01 5.22 6.06 5.28C6.14 5.35 6.22 5.43 6.3 5.51C6.38 5.59 6.46 5.67 6.54 5.75C6.56 5.77 6.59 5.79 6.61 5.82C6.76 5.96 6.85 6.09 6.87 6.31C6.85 6.5 6.8 6.61 6.65 6.75C6.49 6.85 6.35 6.88 6.17 6.85C6.08 6.82 6.03 6.78 5.95 6.71C5.93 6.69 5.91 6.67 5.88 6.64C5.76 6.53 5.64 6.42 5.53 6.3C5.5 6.27 5.47 6.25 5.45 6.22C5.37 6.14 5.29 6.06 5.21 5.98C5.15 5.92 5.1 5.87 5.05 5.82C4.91 5.68 4.78 5.55 4.65 5.42C4.51 5.54 4.4 5.67 4.3 5.83C4.29 5.85 4.27 5.88 4.26 5.9C4.09 6.15 3.96 6.41 3.84 6.68C3.82 6.71 3.82 6.71 3.81 6.75C3.69 7 3.61 7.27 3.53 7.53C3.53 7.57 3.52 7.59 3.51 7.61C3.44 7.89 3.4 8.18 3.35 8.47C3.37 8.47 3.4 8.47 3.42 8.47C3.65 8.47 3.89 8.47 4.12 8.46C4.24 8.46 4.36 8.46 4.48 8.46C4.62 8.46 4.75 8.46 4.89 8.46C4.95 8.46 4.95 8.46 5.02 8.46C5.39 8.46 5.39 8.46 5.56 8.58C5.71 8.74 5.75 8.85 5.74 9.07C5.73 9.23 5.66 9.32 5.54 9.43C5.41 9.53 5.31 9.53 5.15 9.53C5.11 9.53 5.07 9.53 5.03 9.53C4.99 9.53 4.95 9.53 4.9 9.53C4.83 9.53 4.83 9.53 4.77 9.53C4.65 9.53 4.53 9.53 4.41 9.53C4.29 9.53 4.17 9.53 4.05 9.53C3.82 9.53 3.58 9.53 3.35 9.53C3.37 9.66 3.39 9.78 3.41 9.91C3.42 9.96 3.42 9.96 3.43 10.02C3.59 10.97 4.02 11.83 4.61 12.59C4.79 12.43 4.96 12.28 5.13 12.1C5.18 12.05 5.23 12 5.28 11.95C5.36 11.87 5.44 11.78 5.52 11.71C5.6 11.63 5.67 11.55 5.75 11.47C5.78 11.44 5.8 11.42 5.82 11.39C5.97 11.25 6.09 11.15 6.31 11.14C6.51 11.16 6.62 11.21 6.76 11.35C6.85 11.52 6.88 11.65 6.85 11.84C6.82 11.92 6.79 11.97 6.72 12.04C6.7 12.07 6.68 12.1 6.66 12.12C6.4 12.39 6.13 12.67 5.86 12.94C5.78 13.02 5.7 13.1 5.62 13.17C5.53 13.28 5.43 13.37 5.34 13.46C5.3 13.5 5.27 13.54 5.23 13.57C4.89 13.92 4.89 13.92 4.64 13.96C4.44 13.96 4.28 13.89 4.14 13.75C4.1 13.71 4.06 13.67 4.02 13.62C4 13.6 3.98 13.57 3.96 13.55C2.97 12.43 2.26 10.92 2.25 9.4C2.25 9.37 2.25 9.35 2.25 9.32C2.24 8.69 2.24 8.1 2.4 7.49C2.4 7.46 2.41 7.42 2.42 7.39C2.76 6.04 3.51 4.71 4.61 3.83C4.65 3.81 4.68 3.78 4.71 3.75C5.63 3.02 6.69 2.53 7.85 2.32C7.89 2.32 7.89 2.32 7.94 2.3C8.29 2.24 8.63 2.24 8.98 2.24Z" fill="#4D566F" fill-opacity="1.000000" fill-rule="nonzero"/>
	<path id="path" d="M9.18 6.4C9.36 6.49 9.44 6.59 9.53 6.75C9.57 6.86 9.59 6.98 9.62 7.1C9.63 7.14 9.63 7.17 9.64 7.21C9.67 7.32 9.69 7.43 9.71 7.54C9.73 7.62 9.75 7.7 9.76 7.78C9.81 7.99 9.85 8.2 9.9 8.41C9.93 8.57 9.97 8.75 10.01 8.92C10.08 9.27 10.16 9.62 10.23 9.97C10.24 10 10.24 10.03 10.25 10.07C10.38 10.68 10.48 11.21 10.12 11.77C9.91 12.05 9.62 12.21 9.29 12.3C8.82 12.33 8.41 12.28 8.05 11.96C7.75 11.64 7.62 11.28 7.63 10.85C7.64 10.59 7.7 10.33 7.76 10.07C7.77 10.01 7.79 9.95 7.8 9.88C7.83 9.73 7.86 9.58 7.9 9.44C7.94 9.25 7.98 9.06 8.02 8.87C8.07 8.63 8.12 8.38 8.17 8.13C8.2 8 8.23 7.85 8.26 7.71C8.29 7.59 8.32 7.46 8.34 7.32C8.36 7.28 8.37 7.22 8.38 7.17C8.39 7.11 8.4 7.04 8.42 6.97C8.43 6.93 8.44 6.9 8.44 6.86C8.5 6.69 8.58 6.57 8.71 6.46C8.87 6.38 9.01 6.37 9.18 6.4ZM8.97 9.57C8.93 9.75 8.89 9.94 8.85 10.12C8.83 10.19 8.82 10.25 8.8 10.32C8.78 10.4 8.76 10.5 8.74 10.59C8.74 10.61 8.73 10.64 8.72 10.67C8.68 10.87 8.69 11 8.8 11.17C8.91 11.25 9.02 11.24 9.15 11.21C9.24 11.15 9.28 11.11 9.31 11C9.33 10.85 9.3 10.73 9.26 10.59C9.26 10.57 9.25 10.53 9.25 10.5C9.23 10.41 9.2 10.32 9.18 10.22C9.17 10.16 9.16 10.1 9.14 10.03C9.11 9.88 9.08 9.72 9.04 9.57C9.02 9.57 9 9.57 8.97 9.57Z" fill="#4D566F" fill-opacity="1.000000" fill-rule="nonzero"/>
	<path id="path" d="M9.94 12.91C10.28 13.17 10.52 13.54 10.58 13.97C10.61 14.5 10.48 14.92 10.13 15.33C9.75 15.68 9.33 15.77 8.83 15.76C8.63 15.75 8.47 15.71 8.3 15.61C8.26 15.59 8.26 15.59 8.23 15.57C8.16 15.53 8.09 15.48 8.02 15.43C7.99 15.42 7.96 15.39 7.93 15.37C7.59 15.05 7.44 14.64 7.42 14.18C7.43 13.77 7.59 13.36 7.87 13.06C8.46 12.53 9.29 12.46 9.94 12.91ZM8.62 13.85C8.51 14.01 8.48 14.16 8.51 14.35C8.58 14.48 8.66 14.59 8.79 14.66C8.95 14.7 9.07 14.71 9.23 14.66C9.35 14.57 9.43 14.48 9.5 14.35C9.52 14.12 9.49 14 9.36 13.82C9.22 13.7 9.09 13.69 8.92 13.7C8.79 13.71 8.71 13.76 8.62 13.85Z" fill="#4D566F" fill-opacity="1.000000" fill-rule="nonzero"/>
</svg>
