<svg width="18.000000" height="18.000000" viewBox="0 0 18 18" fill="none" xmlns="http://www.w3.org/2000/svg" xmlns:xlink="http://www.w3.org/1999/xlink">
	<desc>
			Created with Pixso.
	</desc>
	<defs>
		<clipPath id="clip1395_25232">
			<rect id="waterdrops-linear 3" width="18.000000" height="18.000000" fill="white" fill-opacity="0"/>
		</clipPath>
	</defs>
	<g clip-path="url(#clip1395_25232)">
		<path id="path" d="M7.5 13.37C7.5 15.1 6.15 16.5 4.5 16.5C2.84 16.5 1.5 15.1 1.5 13.37C1.5 12.29 2.67 10.85 3.55 9.92C3.67 9.79 3.82 9.69 3.98 9.62C4.14 9.55 4.32 9.51 4.5 9.51C4.67 9.51 4.85 9.55 5.01 9.62C5.17 9.69 5.32 9.79 5.44 9.92C6.32 10.85 7.5 12.29 7.5 13.37ZM16.5 13.37C16.5 15.1 15.15 16.5 13.5 16.5C11.84 16.5 10.5 15.1 10.5 13.37C10.5 12.29 11.67 10.85 12.55 9.92C12.67 9.79 12.82 9.69 12.98 9.62C13.14 9.55 13.32 9.51 13.5 9.51C13.67 9.51 13.85 9.55 14.01 9.62C14.17 9.69 14.32 9.79 14.44 9.92C15.32 10.85 16.5 12.29 16.5 13.37ZM12 5.87C12 7.6 10.65 9 9 9C7.34 9 6 7.6 6 5.87C6 4.79 7.17 3.35 8.05 2.42C8.17 2.29 8.32 2.19 8.48 2.12C8.64 2.05 8.82 2.01 9 2.01C9.17 2.01 9.35 2.05 9.51 2.12C9.67 2.19 9.82 2.29 9.94 2.42C10.82 3.35 12 4.79 12 5.87Z" fill="#000000" fill-opacity="0" fill-rule="nonzero"/>
		<path id="path" d="M4.5 16.5C2.84 16.5 1.5 15.1 1.5 13.37C1.5 12.29 2.67 10.85 3.55 9.92C3.67 9.79 3.82 9.69 3.98 9.62C4.14 9.55 4.32 9.51 4.5 9.51C4.67 9.51 4.85 9.55 5.01 9.62C5.17 9.69 5.32 9.79 5.44 9.92C6.32 10.85 7.5 12.29 7.5 13.37C7.5 15.1 6.15 16.5 4.5 16.5ZM13.5 16.5C11.84 16.5 10.5 15.1 10.5 13.37C10.5 12.29 11.67 10.85 12.55 9.92C12.67 9.79 12.82 9.69 12.98 9.62C13.14 9.55 13.32 9.51 13.5 9.51C13.67 9.51 13.85 9.55 14.01 9.62C14.17 9.69 14.32 9.79 14.44 9.92C15.32 10.85 16.5 12.29 16.5 13.37C16.5 15.1 15.15 16.5 13.5 16.5ZM9 9C7.34 9 6 7.6 6 5.87C6 4.79 7.17 3.35 8.05 2.42C8.17 2.29 8.32 2.19 8.48 2.12C8.64 2.05 8.82 2.01 9 2.01C9.17 2.01 9.35 2.05 9.51 2.12C9.67 2.19 9.82 2.29 9.94 2.42C10.82 3.35 12 4.79 12 5.87C12 7.6 10.65 9 9 9Z" stroke="#4D566F" stroke-opacity="1.000000" stroke-width="1.000000"/>
	</g>
</svg>
