<svg width="9.250000" height="16.000000" viewBox="0 0 9.25 16" fill="none" xmlns="http://www.w3.org/2000/svg" xmlns:xlink="http://www.w3.org/1999/xlink">
	<desc>
			Created with Pixso.
	</desc>
	<defs/>
	<path id="path" d="M4.62 15.5C5.47 15.5 6.31 15.23 7.01 14.74C7.7 14.25 8.23 13.54 8.51 12.74C8.8 11.93 8.82 11.06 8.59 10.24C8.35 9.41 7.87 8.68 7.2 8.15C7.1 8.07 7.02 7.98 6.96 7.86C6.9 7.75 6.87 7.63 6.87 7.5L6.87 2.75C6.87 2.15 6.63 1.57 6.21 1.15C5.79 0.73 5.22 0.5 4.62 0.5C4.02 0.5 3.45 0.73 3.03 1.15C2.61 1.57 2.37 2.15 2.37 2.75L2.37 7.5C2.37 7.76 2.24 8 2.04 8.15C1.37 8.68 0.89 9.42 0.65 10.24C0.42 11.06 0.45 11.93 0.73 12.74C1.01 13.54 1.54 14.25 2.24 14.74C2.93 15.23 3.77 15.5 4.62 15.5Z" fill="#000000" fill-opacity="0" fill-rule="nonzero"/>
	<path id="path" d="M7.01 14.74C7.7 14.25 8.23 13.54 8.51 12.74C8.8 11.93 8.82 11.06 8.59 10.24C8.35 9.41 7.87 8.68 7.2 8.15C7.1 8.07 7.02 7.98 6.96 7.86C6.9 7.75 6.87 7.63 6.87 7.5L6.87 2.75C6.87 2.15 6.63 1.57 6.21 1.15C5.79 0.73 5.22 0.5 4.62 0.5C4.02 0.5 3.45 0.73 3.03 1.15C2.61 1.57 2.37 2.15 2.37 2.75L2.37 7.5C2.37 7.76 2.24 8 2.04 8.15C1.37 8.68 0.89 9.42 0.65 10.24C0.42 11.06 0.45 11.93 0.73 12.74C1.01 13.54 1.54 14.25 2.24 14.74C2.93 15.23 3.77 15.5 4.62 15.5C5.47 15.5 6.31 15.23 7.01 14.74Z" stroke="#4D566F" stroke-opacity="1.000000" stroke-width="1.000000"/>
	<path id="path" d="M6.5 11.37C6.5 11.87 6.3 12.35 5.95 12.7C5.59 13.05 5.12 13.25 4.62 13.25C4.12 13.25 3.65 13.05 3.29 12.7C2.94 12.35 2.75 11.87 2.75 11.37C2.75 10.87 2.94 10.39 3.29 10.04C3.65 9.69 4.12 9.5 4.62 9.5C5.12 9.5 5.59 9.69 5.95 10.04C6.3 10.39 6.5 10.87 6.5 11.37Z" fill="#000000" fill-opacity="0" fill-rule="nonzero"/>
	<path id="path" d="M5.95 12.7C5.59 13.05 5.12 13.25 4.62 13.25C4.12 13.25 3.65 13.05 3.29 12.7C2.94 12.35 2.75 11.87 2.75 11.37C2.75 10.87 2.94 10.39 3.29 10.04C3.65 9.69 4.12 9.5 4.62 9.5C5.12 9.5 5.59 9.69 5.95 10.04C6.3 10.39 6.5 10.87 6.5 11.37C6.5 11.87 6.3 12.35 5.95 12.7Z" stroke="#4D566F" stroke-opacity="1.000000" stroke-width="1.000000"/>
	<path id="path" d="M4.14 2.77L4.12 2.75C4.12 2.46 4.34 2.25 4.62 2.25C4.9 2.25 5.12 2.46 5.12 2.75L5.1 2.77L4.14 2.77ZM5.1 9.47L5.12 9.5C5.12 9.78 4.9 10 4.62 10C4.34 10 4.12 9.78 4.12 9.5L4.14 9.47L5.1 9.47Z" fill="#000000" fill-opacity="0" fill-rule="nonzero"/>
	<path id="path" d="M4.62 2.75L4.62 9.5" stroke="#4D566F" stroke-opacity="1.000000" stroke-width="1.000000" stroke-linecap="round"/>
</svg>
