<svg width="14.625000" height="15.750000" viewBox="0 0 14.625 15.75" fill="none" xmlns="http://www.w3.org/2000/svg" xmlns:xlink="http://www.w3.org/1999/xlink">
	<desc>
			Created with Pixso.
	</desc>
	<defs/>
	<path id="path" d="M0.56 0C0.93 0 1.12 0.18 1.12 0.56L1.12 15.18C1.12 15.56 0.93 15.75 0.56 15.75C0.18 15.75 0 15.56 0 15.18L0 0.56C0 0.18 0.18 0 0.56 0ZM7.87 6.23L10.12 6.03L10.12 1.84L7.87 1.64L7.87 6.23ZM6.75 6.33L6.75 1.53L3.37 1.23L3.37 1.68L2.25 1.68L2.25 0L13.09 0.98C13.5 1.02 13.89 1.21 14.18 1.53C14.46 1.83 14.62 2.24 14.62 2.66L14.62 5.21C14.62 5.63 14.46 6.03 14.18 6.34C13.89 6.65 13.5 6.85 13.09 6.89L2.25 7.87L2.25 2.81L3.37 2.81L3.37 6.64L6.75 6.33ZM11.25 5.92L12.98 5.77C13.12 5.75 13.25 5.69 13.35 5.58C13.44 5.48 13.5 5.35 13.5 5.21L13.5 2.66C13.5 2.52 13.44 2.39 13.35 2.28C13.25 2.17 13.12 2.11 12.98 2.1L11.25 1.94L11.25 5.92Z" fill="#4D566F" fill-opacity="1.000000" fill-rule="nonzero"/>
</svg>
