<svg width="18.000000" height="18.000000" viewBox="0 0 18 18" fill="none" xmlns="http://www.w3.org/2000/svg" xmlns:xlink="http://www.w3.org/1999/xlink">
	<desc>
			Created with Pixso.
	</desc>
	<defs>
		<clipPath id="clip1395_25284">
			<rect id="wind-outline 2" width="18.000000" height="18.000000" fill="white" fill-opacity="0"/>
		</clipPath>
	</defs>
	<g clip-path="url(#clip1395_25284)">
		<path id="path" d="M4.68 4.12C4.68 3.64 4.83 3.17 5.09 2.77C5.36 2.36 5.74 2.05 6.19 1.87C6.63 1.68 7.12 1.64 7.6 1.73C8.07 1.82 8.5 2.06 8.84 2.39C9.18 2.74 9.42 3.17 9.51 3.64C9.6 4.12 9.56 4.6 9.37 5.05C9.19 5.5 8.87 5.88 8.47 6.14C8.07 6.42 7.6 6.56 7.12 6.56L2.25 6.56C2.1 6.56 1.95 6.5 1.85 6.39C1.74 6.28 1.68 6.14 1.68 6C1.68 5.85 1.74 5.71 1.85 5.6C1.95 5.5 2.1 5.43 2.25 5.43L7.12 5.43C7.38 5.43 7.63 5.35 7.85 5.21C8.07 5.07 8.23 4.86 8.33 4.62C8.43 4.39 8.46 4.12 8.41 3.86C8.36 3.61 8.23 3.38 8.05 3.19C7.86 3.01 7.63 2.89 7.38 2.83C7.12 2.78 6.86 2.81 6.62 2.91C6.38 3.01 6.17 3.17 6.03 3.39C5.88 3.6 5.81 3.86 5.81 4.12L5.81 4.39C5.81 4.53 5.75 4.68 5.64 4.78C5.54 4.89 5.39 4.95 5.25 4.95C5.1 4.95 4.95 4.89 4.85 4.78C4.74 4.68 4.68 4.53 4.68 4.39L4.68 4.12ZM10.68 5.62C10.68 4.99 10.87 4.37 11.22 3.85C11.57 3.32 12.07 2.92 12.65 2.67C13.23 2.43 13.87 2.37 14.49 2.5C15.11 2.62 15.68 2.92 16.12 3.37C16.57 3.82 16.87 4.38 17 5C17.12 5.62 17.06 6.26 16.82 6.84C16.57 7.42 16.16 7.92 15.64 8.27C15.12 8.62 14.5 8.81 13.87 8.81L1.5 8.81C1.35 8.81 1.2 8.75 1.1 8.64C0.99 8.53 0.93 8.39 0.93 8.25C0.93 8.1 0.99 7.96 1.1 7.85C1.2 7.75 1.35 7.68 1.5 7.68L13.87 7.68C14.28 7.68 14.68 7.57 15.02 7.34C15.36 7.1 15.62 6.78 15.78 6.41C15.93 6.03 15.97 5.62 15.89 5.21C15.81 4.82 15.62 4.45 15.33 4.16C15.04 3.87 14.67 3.67 14.27 3.6C13.87 3.52 13.46 3.56 13.08 3.71C12.7 3.87 12.38 4.14 12.16 4.47C11.93 4.82 11.81 5.21 11.81 5.62L11.81 6C11.81 6.14 11.75 6.28 11.64 6.39C11.54 6.5 11.39 6.56 11.25 6.56C11.1 6.56 10.95 6.5 10.85 6.39C10.74 6.28 10.68 6.14 10.68 6L10.68 5.62ZM2.43 10.5C2.43 10.35 2.49 10.21 2.6 10.1C2.7 10 2.85 9.93 3 9.93L13.87 9.93C14.5 9.93 15.12 10.12 15.64 10.47C16.16 10.82 16.57 11.32 16.82 11.9C17.06 12.48 17.12 13.12 17 13.75C16.87 14.36 16.57 14.92 16.12 15.37C15.68 15.82 15.11 16.12 14.49 16.25C13.87 16.37 13.23 16.31 12.65 16.07C12.07 15.82 11.57 15.42 11.22 14.89C10.87 14.37 10.68 13.75 10.68 13.12L10.68 12.75C10.68 12.6 10.74 12.46 10.85 12.35C10.95 12.25 11.1 12.18 11.25 12.18C11.39 12.18 11.54 12.25 11.64 12.35C11.75 12.46 11.81 12.6 11.81 12.75L11.81 13.12C11.81 13.53 11.93 13.92 12.16 14.27C12.38 14.6 12.7 14.87 13.08 15.03C13.46 15.18 13.87 15.22 14.27 15.14C14.67 15.07 15.04 14.87 15.33 14.58C15.62 14.29 15.81 13.92 15.89 13.53C15.97 13.12 15.93 12.71 15.78 12.33C15.62 11.96 15.36 11.63 15.02 11.4C14.68 11.17 14.28 11.06 13.87 11.06L3 11.06C2.85 11.06 2.7 11 2.6 10.89C2.49 10.78 2.43 10.64 2.43 10.5Z" fill="#4D566F" fill-opacity="1.000000" fill-rule="evenodd"/>
	</g>
</svg>
